<svg width="657" height="434" viewBox="0 0 657 434" fill="none" xmlns="http://www.w3.org/2000/svg">
<path d="M585 318L542 322.5V428L585 425V318Z" fill="#530512"/>
<path d="M542 322.424L501 314V425L542 428V322.424Z" fill="#BC0E22"/>
<path d="M549 310L501.5 314L542 322.5L584.5 318L549 310Z" fill="#F4E4E4"/>
<path d="M486 246.288L443 253.763V429L486 424.017V246.288Z" fill="#530512"/>
<path d="M443 253.637L402 239.644V424.017L443 429V253.637Z" fill="#BC0E22"/>
<path d="M450 233L402.5 239.644L443 253.763L485.5 246.288L450 233Z" fill="#F4E4E4"/>
<path d="M387 271.593L344 278.114V431L387 426.653V271.593Z" fill="#530512"/>
<path d="M344 278.004L303 265.797V426.653L344 431V278.004Z" fill="#BC0E22"/>
<path d="M351 260L303.5 265.797L344 278.114L386.5 271.593L351 260Z" fill="#F4E4E4"/>
<path d="M288 203.542L245 212.847V431L288 424.797V203.542Z" fill="#530512"/>
<path d="M245 212.691L204 195.271V424.797L245 431V212.691Z" fill="#BC0E22"/>
<path d="M252 187L204.5 195.271L245 212.847L287.5 203.542L252 187Z" fill="#F4E4E4"/>
<path d="M191 115.119L148 128.123V433L191 424.331V115.119Z" fill="#530512"/>
<path d="M148 127.904L107 103.559V424.331L148 433V127.904Z" fill="#BC0E22"/>
<path d="M155 92L107.5 103.559L148 128.123L190.5 115.119L155 92Z" fill="#F4E4E4"/>
<path d="M602 428L85.9999 428.975" stroke="#31000A" stroke-width="10" stroke-linecap="round"/>
<path d="M219.21 78.1062L166.301 32.1392" stroke="#2C0000" stroke-width="25" stroke-linecap="round"/>
<path d="M231.063 87.5495L214.509 74.2048" stroke="#2C0000" stroke-width="25" stroke-linecap="round"/>
<path d="M262.013 99.6826C268.915 99.5713 274.41 93.8856 274.284 86.9833C274.159 80.081 268.461 74.5757 261.558 74.687L262.013 99.6826ZM261.558 74.687L230.969 75.1803L231.423 100.176L262.013 99.6826L261.558 74.687Z" fill="#2C0000"/>
<path d="M262.049 87.6454L322.648 154.356" stroke="#2C0000" stroke-width="25" stroke-linecap="round"/>
<path d="M322.975 153.943L396.676 97.6424" stroke="#2C0000" stroke-width="25" stroke-linecap="round"/>
<path d="M397.141 97.6119L438.859 143.716" stroke="#2C0000" stroke-width="25" stroke-linecap="round"/>
<path d="M428.091 150.706C423.036 146.004 422.93 138.268 427.853 133.428C432.776 128.589 440.864 128.477 445.919 133.18L428.091 150.706ZM445.919 133.18L593.604 270.589L575.776 288.115L428.091 150.706L445.919 133.18Z" fill="#2C0000"/>
<path d="M618.254 313.883C619.84 314.373 621.34 312.939 620.827 311.421L604.114 261.949C603.644 260.559 601.804 260.135 600.724 261.168L565.709 294.654C564.629 295.687 565.072 297.447 566.526 297.896L618.254 313.883Z" fill="#2C0000"/>
<path d="M145.576 13.4573L169.095 34.4124" stroke="#2C0000" stroke-width="25" stroke-linecap="round"/>
<path d="M311.394 251L342.319 220.075" stroke="#7A0016" stroke-width="11" stroke-linecap="round"/>
<path d="M311 220L341.925 250.925" stroke="#7A0016" stroke-width="11" stroke-linecap="round"/>
<path d="M511.394 39L542.319 8.07461" stroke="#7A0016" stroke-width="11" stroke-linecap="round"/>
<path d="M511 8L541.925 38.9254" stroke="#7A0016" stroke-width="11" stroke-linecap="round"/>
<path d="M620.394 368L651.319 337.075" stroke="#7A0016" stroke-width="11" stroke-linecap="round"/>
<path d="M620 337L650.925 367.925" stroke="#7A0016" stroke-width="11" stroke-linecap="round"/>
<path d="M62.3936 253L93.3189 222.075" stroke="#7A0016" stroke-width="11" stroke-linecap="round"/>
<path d="M62 222L92.9254 252.925" stroke="#7A0016" stroke-width="11" stroke-linecap="round"/>
<path d="M6.57803 66L52 20.1107" stroke="#7A0016" stroke-width="11" stroke-linecap="round"/>
<path d="M6 20L51.422 65.8893" stroke="#7A0016" stroke-width="11" stroke-linecap="round"/>
</svg>
