<svg width="667" height="492" viewBox="0 0 667 492" fill="none" xmlns="http://www.w3.org/2000/svg">
<path d="M95 376L138 380.5V486L95 483V376Z" fill="#0D6658"/>
<path d="M138 380.424L179 372V483L138 486V380.424Z" fill="#8BCBB6"/>
<path d="M131 368L178.5 372L138 380.5L95.5 376L131 368Z" fill="#E4F3F4"/>
<path d="M194 304.288L237 311.763V487L194 482.017V304.288Z" fill="#0D6658"/>
<path d="M237 311.637L278 297.644V482.017L237 487V311.637Z" fill="#8BCBB6"/>
<path d="M230 291L277.5 297.644L237 311.763L194.5 304.288L230 291Z" fill="#E4F3F4"/>
<path d="M293 329.593L336 336.114V489L293 484.653V329.593Z" fill="#0D6658"/>
<path d="M336 336.004L377 323.797V484.653L336 489V336.004Z" fill="#8BCBB6"/>
<path d="M329 318L376.5 323.797L336 336.114L293.5 329.593L329 318Z" fill="#E4F3F4"/>
<path d="M392 261.542L435 270.847V489L392 482.797V261.542Z" fill="#0D6658"/>
<path d="M435 270.691L476 253.271V482.797L435 489V270.691Z" fill="#8BCBB6"/>
<path d="M428 245L475.5 253.271L435 270.847L392.5 261.542L428 245Z" fill="#E4F3F4"/>
<path d="M489 173.119L532 186.123V491L489 482.331V173.119Z" fill="#0D6658"/>
<path d="M532 185.904L573 161.559V482.331L532 491V185.904Z" fill="#8BCBB6"/>
<path d="M525 150L572.5 161.559L532 186.123L489.5 173.119L525 150Z" fill="#E4F3F4"/>
<path d="M78 486L594 486.975" stroke="#054245" stroke-width="10" stroke-linecap="round"/>
<path fill-rule="evenodd" clip-rule="evenodd" d="M638.677 197.785C638.22 195.547 639.716 193 642 193C644.284 193 645.78 195.547 645.323 197.785C645.111 198.823 645 199.899 645 201C645 209.837 652.163 217 661 217C661.982 217 662.943 216.912 663.876 216.742C665.409 216.464 667 217.538 667 219.095C667 220.718 665.277 221.803 663.698 221.43C662.511 221.149 661.273 221 660 221C651.163 221 644 228.163 644 237C644 238.066 644.104 239.108 644.303 240.116C644.671 241.978 643.398 244 641.5 244C639.602 244 638.329 241.978 638.697 240.116C638.896 239.108 639 238.066 639 237C639 228.163 631.837 221 623 221C622.226 221 621.465 221.055 620.72 221.161C619.355 221.356 618 220.378 618 219C618 217.622 619.355 216.644 620.72 216.839C621.465 216.945 622.226 217 623 217C631.837 217 639 209.837 639 201C639 199.899 638.889 198.823 638.677 197.785Z" fill="#3D9C77"/>
<path fill-rule="evenodd" clip-rule="evenodd" d="M598.831 346.263C598.501 344.705 599.57 343 601.163 343C602.756 343 603.826 344.705 603.496 346.263C603.292 347.228 603.184 348.236 603.184 349.275C603.184 356.205 608.008 361.824 613.959 361.824C614.512 361.824 615.055 361.775 615.585 361.682C616.749 361.476 618 362.271 618 363.454C618 364.689 616.636 365.493 615.433 365.21C614.739 365.047 614.021 364.961 613.286 364.961C607.335 364.961 602.51 370.579 602.51 377.51C602.51 378.489 602.607 379.443 602.789 380.357C603.046 381.647 602.142 383 600.827 383C599.511 383 598.607 381.647 598.864 380.357C599.047 379.443 599.143 378.489 599.143 377.51C599.143 370.579 594.318 364.961 588.367 364.961C587.946 364.961 587.53 364.989 587.12 365.044C586.072 365.185 585 364.45 585 363.392C585 362.334 586.072 361.6 587.12 361.74C587.53 361.795 587.946 361.824 588.367 361.824C594.318 361.824 599.143 356.205 599.143 349.275C599.143 348.236 599.035 347.228 598.831 346.263Z" fill="#3D9C77"/>
<path fill-rule="evenodd" clip-rule="evenodd" d="M75.976 265.737C75.6056 263.968 76.8056 262 78.6122 262C80.4189 262 81.6189 263.968 81.2484 265.737C81.0458 266.704 80.9388 267.711 80.9388 268.745C80.9388 276.196 86.4941 282.235 93.3469 282.235C94.0416 282.235 94.7228 282.173 95.3864 282.054C96.6567 281.826 98 282.704 98 283.994C98 285.341 96.5399 286.229 95.229 285.918C94.3729 285.715 93.4836 285.608 92.5714 285.608C85.7186 285.608 80.1633 291.648 80.1633 299.098C80.1633 300.084 80.2605 301.045 80.4452 301.971C80.7378 303.438 79.7205 305 78.2245 305C76.7284 305 75.7111 303.438 76.0038 301.971C76.1885 301.045 76.2857 300.084 76.2857 299.098C76.2857 291.648 70.7304 285.608 63.8776 285.608C63.3383 285.608 62.807 285.645 62.2859 285.718C61.1478 285.876 60 285.071 60 283.922C60 282.773 61.1478 281.967 62.2859 282.125C62.807 282.198 63.3383 282.235 63.8776 282.235C70.7304 282.235 76.2857 276.196 76.2857 268.745C76.2857 267.711 76.1787 266.704 75.976 265.737Z" fill="#3D9C77"/>
<path fill-rule="evenodd" clip-rule="evenodd" d="M25.0543 61.7767C24.4652 59.5478 25.9662 57 28.2717 57H30.5038C32.8093 57 34.3103 59.5478 33.7212 61.7767C33.2907 63.4054 33.0612 65.1168 33.0612 66.8824C33.0612 77.7981 41.8328 86.6471 52.6531 86.6471C53.8445 86.6471 55.0112 86.5398 56.144 86.3342C58.0338 85.9913 60 87.3134 60 89.2341C60 91.2356 57.8707 92.572 55.9231 92.1108C54.4798 91.769 52.9751 91.5882 51.4286 91.5882C40.6083 91.5882 31.8367 100.437 31.8367 111.353C31.8367 112.771 31.9847 114.153 32.2659 115.487C32.7224 117.651 31.2378 120 29.0255 120H28.5255C26.3132 120 24.8286 117.651 25.2852 115.487C25.5663 114.153 25.7143 112.771 25.7143 111.353C25.7143 100.437 16.9427 91.5882 6.12245 91.5882C5.18437 91.5882 4.26168 91.6547 3.35878 91.7834C1.67497 92.0232 0 90.8185 0 89.1176C0 87.4168 1.67497 86.2121 3.35878 86.4519C4.26168 86.5805 5.18437 86.6471 6.12245 86.6471C16.9427 86.6471 25.7143 77.7981 25.7143 66.8824C25.7143 65.1168 25.4848 63.4054 25.0543 61.7767Z" fill="#3D9C77"/>
<path d="M165.071 292L108 343.845" stroke="#000D18" stroke-width="25" stroke-linecap="round"/>
<path d="M177.856 281.349L160 296.4" stroke="#000D18" stroke-width="25" stroke-linecap="round"/>
<path d="M211.207 269.262C218.109 269.379 223.611 275.069 223.494 281.971C223.378 288.874 217.688 294.375 210.785 294.259L211.207 269.262ZM210.785 294.259L177.789 293.702L178.211 268.706L211.207 269.262L210.785 294.259Z" fill="#000D18"/>
<path d="M211.28 281.241L276.647 206" stroke="#000D18" stroke-width="25" stroke-linecap="round"/>
<path d="M277 206.466L356.499 269.966" stroke="#000D18" stroke-width="25" stroke-linecap="round"/>
<path d="M357 270L402 218" stroke="#000D18" stroke-width="25" stroke-linecap="round"/>
<path d="M391.284 211.04C386.335 215.854 386.226 223.768 391.04 228.716C395.854 233.665 403.768 233.774 408.716 228.96L391.284 211.04ZM408.716 228.96L568.021 73.9799L550.588 56.0606L391.284 211.04L408.716 228.96Z" fill="#000D18"/>
<path d="M595.89 25.9503C597.442 25.4487 598.909 26.9161 598.408 28.4683L580.153 84.9664C579.694 86.3889 577.893 86.8228 576.836 85.7658L538.593 47.5247C537.536 46.4677 537.97 44.667 539.392 44.2073L595.89 25.9503Z" fill="#000D18"/>
<path d="M71 355.281L105.559 345" stroke="#000D18" stroke-width="25" stroke-linecap="round"/>
<path fill-rule="evenodd" clip-rule="evenodd" d="M325.831 265.263C325.501 263.705 326.57 262 328.163 262C329.756 262 330.826 263.705 330.496 265.263C330.292 266.228 330.184 267.236 330.184 268.275C330.184 275.205 335.008 280.824 340.959 280.824C341.512 280.824 342.055 280.775 342.585 280.682C343.749 280.476 345 281.271 345 282.454C345 283.689 343.636 284.493 342.433 284.21C341.739 284.047 341.021 283.961 340.286 283.961C334.335 283.961 329.51 289.579 329.51 296.51C329.51 297.489 329.607 298.443 329.789 299.357C330.046 300.647 329.142 302 327.827 302C326.511 302 325.607 300.647 325.864 299.357C326.047 298.443 326.143 297.489 326.143 296.51C326.143 289.579 321.318 283.961 315.367 283.961C314.946 283.961 314.53 283.989 314.12 284.044C313.072 284.185 312 283.45 312 282.392C312 281.334 313.072 280.6 314.12 280.74C314.53 280.795 314.946 280.824 315.367 280.824C321.318 280.824 326.143 275.205 326.143 268.275C326.143 267.236 326.035 266.228 325.831 265.263Z" fill="#3D9C77"/>
</svg>
